# xmcd
#
# Track frame offsets:
#	150
#	1153
#	15186
#	27959
#	47127
#	62368
#	82647
#	98825
#	119673
#	135869
#	152662
#	170151
#	186246
#	205316
#	218874
#	231532
#
# Disc length: 3300 seconds
#
# Revision: 0
# Processed by: cddbd v1.5.2PL0 Copyright (c) Steve Scherf et al.
# Submitted via: EasyCDDAExtractor 15.2.0.1
#
DISCID=c80ce210
DTITLE=Vicente di Paula Canta Seresta - Vol.03
DYEAR=1900
DGENRE=
TTITLE0=Abertura
TTITLE1=Relógio
TTITLE2=Brigas
TTITLE3=Amante (Autor Almir Sann)
TTITLE4=Amor Tem Que Ser Amor
TTITLE5=Medo
TTITLE6=Paixão Errante
TTITLE7=Querer e Perder
TTITLE8=A Gente Fica Sem Se Amar
TTITLE9=Aparências
TTITLE10=Milagre da Flexa
TTITLE11=Poetas e Rios
TTITLE12=Menino de Rua
TTITLE13=Marina
TTITLE14=As Rosas Não Falam
TTITLE15=Ninguém Me Ama-Poema-Vagabundo
EXTD=
EXTT0=
EXTT1=
EXTT2=
EXTT3=
EXTT4=
EXTT5=
EXTT6=
EXTT7=
EXTT8=
EXTT9=
EXTT10=
EXTT11=
EXTT12=
EXTT13=
EXTT14=
EXTT15=
PLAYORDER=
